#tb 0: 1/25
0,          2,          2,        1,    36864, 0x36df68f4
0,          4,          4,        1,    36864, 0x52d4c6d9
0,          6,          6,        1,    36864, 0xad16b0be
0,          8,          8,        1,    36864, 0xf8c72556
0,         10,         10,        1,    36864, 0x70aaad30
0,         12,         12,        1,    36864, 0x53cffd5e
0,         14,         14,        1,    36864, 0xb3fa8abc
0,         16,         16,        1,    36864, 0x9c894009
0,         18,         18,        1,    36864, 0xfbc08050
0,         20,         20,        1,    36864, 0x9d5b2d65
0,         22,         22,        1,    36864, 0x3bd8bb5d
0,         24,         24,        1,    36864, 0x8d976ecf
0,         26,         26,        1,    36864, 0x25010368
0,         28,         28,        1,    36864, 0xb6e6a11c
0,         30,         30,        1,    36864, 0x595a3967
0,         32,         32,        1,    36864, 0x4fbcb9a8
0,         34,         34,        1,    36864, 0xc7c5c16b
0,         36,         36,        1,    36864, 0x661ae1eb
0,         38,         38,        1,    36864, 0x169f04a7
0,         40,         40,        1,    36864, 0xd124c93a
0,         42,         42,        1,    36864, 0x3f642dba
0,         44,         44,        1,    36864, 0xe7ad6956
0,         46,         46,        1,    36864, 0x47dc76d3
0,         48,         48,        1,    36864, 0x496a3917
0,         50,         50,        1,    36864, 0xa976d5f3
0,         52,         52,        1,    36864, 0x507bb685
0,         54,         54,        1,    36864, 0x2f61ac12
0,         56,         56,        1,    36864, 0x527818d8
0,         58,         58,        1,    36864, 0xa4983396
0,         60,         60,        1,    36864, 0x3ec9b07b
0,         62,         62,        1,    36864, 0x7db52d99
0,         64,         64,        1,    36864, 0xe974fd00
0,         66,         66,        1,    36864, 0x9c677a4f
0,         68,         68,        1,    36864, 0x108f3a05
0,         70,         70,        1,    36864, 0x23a56ba2
0,         72,         72,        1,    36864, 0x4c8d47e8
0,         74,         74,        1,    36864, 0x9e0b0f09
0,         76,         76,        1,    36864, 0x4d262b16
0,         78,         78,        1,    36864, 0x6122402e
0,         80,         80,        1,    36864, 0xed037036
0,         82,         82,        1,    36864, 0x62b3ba08
0,         84,         84,        1,    36864, 0x7f876930
0,         86,         86,        1,    36864, 0x4a6c0983
0,         88,         88,        1,    36864, 0xf9787086
0,         90,         90,        1,    36864, 0x01d1b1b5
0,         92,         92,        1,    36864, 0xc1622655
0,         94,         94,        1,    36864, 0x27e8e0f7
0,         96,         96,        1,    36864, 0xc1622655
0,         98,         98,        1,    36864, 0x12c2b7e9
0,        100,        100,        1,    36864, 0xd752d2ef
0,        102,        102,        1,    36864, 0xcbb1c3a7
0,        104,        104,        1,    36864, 0x18c56fba
0,        106,        106,        1,    36864, 0xb1b3771c
0,        108,        108,        1,    36864, 0x284ef3c4
0,        110,        110,        1,    36864, 0xda6eb5a0
0,        112,        112,        1,    36864, 0x17ad337c
0,        114,        114,        1,    36864, 0xe2801e4f
0,        115,        115,        1,    36864, 0x6c33bd17
